#N canvas 582 232 640 319 10;
#X obj 88 60 openpanel;
#X obj 88 22 bng 15 250 50 0 empty empty empty 17 7 0 10 -262144 -1
-1;
#X obj 80 155 readsf~;
#X msg 89 112 open \$1;
#X obj 71 203 output~;
#X msg 22 124 start;
#X text 118 79 wave \, aiff \, or nextstep formats!;
#X connect 0 0 3 0;
#X connect 1 0 0 0;
#X connect 2 0 4 0;
#X connect 2 0 4 1;
#X connect 3 0 2 0;
#X connect 5 0 2 0;
