#N canvas 582 232 640 319 10;
#X obj 44 33 openpanel;
#X obj 44 -2 bng 15 250 50 0 empty empty empty 17 7 0 10 -262144 -1
-1;
#X obj 72 166 readsf~;
#X msg 45 112 open \$1;
#X obj 497 211 output~;
#X msg 18 138 start;
#X obj 508 170 catch~ sound;
#X obj 72 199 throw~ input;
#X obj 360 19 catch~ input;
#X obj 363 183 throw~ sound;
#X obj 396 59 vsl 15 64 -2 2 0 0 empty empty empty 0 -9 0 10 -262144
-1 -1 2900 1;
#X text 59 17 wave \, aiff \, or nextstep formats!;
#X symbolatom 66 85 40 0 0 0 - - -;
#X obj 19 54 bng 15 250 50 0 empty empty empty 17 7 0 10 -262144 -1
-1;
#X obj 435 60 vsl 15 64 -2 2 0 0 empty empty empty 0 -9 0 10 -262144
-1 -1 4200 1;
#X obj 378 138 clip~ -1 1;
#X connect 0 0 3 0;
#X connect 0 0 12 0;
#X connect 1 0 0 0;
#X connect 2 0 7 0;
#X connect 3 0 2 0;
#X connect 5 0 2 0;
#X connect 6 0 4 0;
#X connect 6 0 4 1;
#X connect 8 0 15 0;
#X connect 10 0 15 1;
#X connect 12 0 3 0;
#X connect 13 0 12 0;
#X connect 13 0 5 0;
#X connect 14 0 15 2;
#X connect 15 0 9 0;
