#N canvas 582 232 640 319 10;
#X obj 44 33 openpanel;
#X obj 44 -2 bng 15 250 50 0 empty empty empty 17 7 0 10 -262144 -1
-1;
#X obj 72 166 readsf~;
#X msg 45 112 open \$1;
#X obj 497 211 output~;
#X msg 18 138 start;
#X obj 508 170 catch~ sound;
#X obj 72 199 throw~ input;
#X obj 360 -11 catch~ input;
#X obj 374 234 throw~ sound;
#X text 59 17 wave \, aiff \, or nextstep formats!;
#X symbolatom 66 85 40 0 0 0 - - -;
#X obj 19 54 bng 15 250 50 0 empty empty empty 17 7 0 10 -262144 -1
-1;
#X obj 373 18 delwrite~ d1 1000;
#X obj 405 44 hsl 128 15 0 1000 0 0 empty empty empty -2 -8 0 10 -262144
-1 -1 2400 1;
#X obj 398 86 hsl 128 15 0 1 0 0 empty empty empty -2 -8 0 10 -262144
-1 -1 6500 1;
#X obj 425 109 * -1;
#X obj 425 134 + 1;
#X floatatom 442 159 5 0 0 0 - - -;
#X obj 326 172 *~;
#X obj 375 171 *~;
#X obj 357 206 +~;
#X obj 376 63 vd~ d1;
#X connect 0 0 3 0;
#X connect 0 0 11 0;
#X connect 1 0 0 0;
#X connect 2 0 7 0;
#X connect 3 0 2 0;
#X connect 5 0 2 0;
#X connect 6 0 4 0;
#X connect 6 0 4 1;
#X connect 8 0 13 0;
#X connect 8 0 19 0;
#X connect 11 0 3 0;
#X connect 12 0 11 0;
#X connect 12 0 5 0;
#X connect 14 0 22 0;
#X connect 15 0 16 0;
#X connect 15 0 19 1;
#X connect 16 0 17 0;
#X connect 17 0 18 0;
#X connect 17 0 20 1;
#X connect 19 0 21 0;
#X connect 20 0 21 0;
#X connect 21 0 9 0;
#X connect 22 0 20 0;
