#N canvas 598 157 801 513 10;
#X obj 39 36 openpanel;
#X obj 31 -1 bng 15 250 50 0 empty empty empty 17 7 0 10 -262144 -1
-1;
#X obj 53 243 readsf~;
#X msg 32 164 open \$1;
#X obj 594 393 output~;
#X msg 67 203 start;
#X obj 605 352 catch~ sound;
#X obj 53 283 throw~ input;
#X obj 474 33 catch~ input;
#X obj 511 314 throw~ sound;
#X text 43 16 wave \, aiff \, or nextstep formats!;
#X symbolatom 29 115 40 0 0 0 - - -, f 40;
#X obj 13 61 bng 15 250 50 0 empty empty empty 17 7 0 10 -262144 -1
-1;
#X obj 487 62 delwrite~ d1 1000;
#X obj 231 202 hsl 128 15 0 1000 0 0 empty empty empty -2 -8 0 10 -262144
-1 -1 3700 1;
#X obj 534 110 hsl 128 15 0 1 0 0 empty empty empty -2 -8 0 10 -262144
-1 -1 3400 1;
#X obj 487 155 * -1;
#X obj 491 184 + 1;
#X floatatom 499 219 5 0 0 0 - - -, f 5;
#X obj 457 251 *~;
#X obj 570 192 *~;
#X obj 511 276 +~;
#X obj 228 230 vd~ d1;
#X obj 215 385 throw~ input;
#X obj 267 314 hsl 128 15 0 1 0 0 empty empty empty -2 -8 0 10 -262144
-1 -1 4600 1;
#X obj 215 341 *~;
#X obj 594 159 catch~ delayed;
#X obj 294 262 throw~ delayed;
#X text 298 287 reverb;
#X text 533 88 fader;
#X text 235 182 delay;
#X connect 0 0 11 0;
#X connect 1 0 0 0;
#X connect 2 0 7 0;
#X connect 3 0 2 0;
#X connect 3 0 5 0;
#X connect 5 0 2 0;
#X connect 6 0 4 0;
#X connect 6 0 4 1;
#X connect 8 0 13 0;
#X connect 8 0 19 0;
#X connect 11 0 3 0;
#X connect 12 0 11 0;
#X connect 14 0 22 0;
#X connect 15 0 16 0;
#X connect 15 0 20 0;
#X connect 16 0 17 0;
#X connect 17 0 18 0;
#X connect 17 0 19 1;
#X connect 19 0 21 0;
#X connect 20 0 21 0;
#X connect 21 0 9 0;
#X connect 22 0 27 0;
#X connect 22 0 25 0;
#X connect 24 0 25 1;
#X connect 25 0 23 0;
#X connect 26 0 20 1;
